<svg xmlns="http://www.w3.org/2000/svg" width="119" height="32" viewBox="0 0 119 32" fill="currentColor">
  <g clip-path="url(#clip0_8061_1760)">
    <path d="M36.4271 18.2131C36.4271 19.9237 35.0391 21.3117 33.3285 21.3117H25.6964L31.0933 26.7086C32.3037 27.919 32.3037 29.882 31.0933 31.0915C30.4876 31.6954 29.6954 31.9991 28.9023 31.9991C28.1092 31.9991 27.316 31.6954 26.7113 31.0915L19.7282 24.1102V24.1084C19.73 21.6884 21.6911 19.7263 24.1111 19.7263V16.6971C21.6911 16.6971 19.7282 14.736 19.7282 12.3142H16.7007C16.7007 14.736 14.7378 16.6971 12.3178 16.6971V19.7263C14.7378 19.7263 16.6998 21.6875 16.7007 24.1084V24.1102L9.71762 31.0915C9.11376 31.6954 8.31973 31.9991 7.5266 31.9991C6.73347 31.9991 5.94125 31.6954 5.33559 31.0915C4.12517 29.8811 4.12517 27.9181 5.33559 26.7086L10.7325 21.3117H3.09861C1.38797 21.3117 0 19.9237 0 18.2131C0 16.5025 1.38797 15.1145 3.09861 15.1145H10.7325L5.33469 9.71672C4.12426 8.5063 4.12426 6.54511 5.33469 5.33469C6.54511 4.12426 8.5063 4.12426 9.71672 5.33469L15.1145 10.7325V3.09861C15.1145 1.38617 16.5016 0 18.2131 0C19.9246 0 21.3117 1.38707 21.3117 3.09861V10.7325L26.7095 5.33469C27.9199 4.12426 29.8811 4.12426 31.0915 5.33469C32.3019 6.54511 32.3019 8.5063 31.0915 9.71672L25.6937 15.1145H33.3276C35.0382 15.1145 36.4262 16.5016 36.4262 18.2131H36.4271Z" fill="currentColor"/>
    <path d="M64.8164 12.1143H60.2334V26.0598H64.8164V12.1143Z" fill="currentColor"/>
    <path d="M118.844 6.55249H114.261V26.0598H118.844V6.55249Z" fill="currentColor"/>
    <path d="M108.162 12.929C106.995 11.833 105.425 11.1606 103.698 11.1606C101.971 11.1606 100.263 11.8916 99.0806 13.0723C97.8999 14.2538 97.1689 15.8852 97.1689 17.6877V19.6949C97.1689 23.2991 100.091 26.222 103.698 26.222C105.426 26.222 106.995 25.5496 108.162 24.4536V26.0588H112.745V11.3238H108.162V12.929ZM108.16 21.0162C108.16 22.3762 107.06 23.4776 105.699 23.4776H105.227C103.308 23.4776 101.752 21.921 101.752 20.0022V17.3822C101.752 15.4616 103.308 13.9068 105.227 13.9068H105.699C107.059 13.9068 108.16 15.0073 108.16 16.3664V21.0162Z" fill="currentColor"/>
    <path d="M92.0938 17.6428C94.3984 16.3882 95.963 13.9448 95.963 11.1355H91.38V13.2968C91.38 15.4193 89.8028 17.1732 87.7568 17.4517V6.55249H83.1738V26.095H87.7568V18.8099C89.7793 19.3768 91.2637 21.2335 91.2637 23.4371V26.095H96.5146V23.2641C96.5146 20.5395 94.63 18.2565 92.0938 17.6428Z" fill="currentColor"/>
    <path d="M75.9063 11.021C71.6072 11.021 70.9151 14.3485 70.9151 14.3485V12.1143H66.332V26.0598H70.9151V16.5792C71.3251 15.9249 72.5283 14.3476 74.5932 14.3476C76.8626 14.3476 77.0627 16.2547 77.0762 16.7441C77.078 16.818 77.0762 16.8595 77.0762 16.8595V26.0598H81.6583V15.1858C81.6583 15.1858 81.4195 11.021 75.9063 11.021Z" fill="currentColor"/>
    <path d="M64.8164 6.3667H60.2334V10.9497H64.8164V6.3667Z" fill="currentColor"/>
    <path d="M58.718 16.926V26.0731H54.573V17.0342C54.573 15.6642 53.4627 14.5548 52.0936 14.5548H50.9931C50.0171 14.5548 49.1311 14.9513 48.4912 15.5912C47.8513 16.233 47.4547 17.1171 47.4547 18.095V26.0731H43.3115V6.36572H47.4547V13.3894C47.644 12.7856 49.3231 10.8514 51.9007 10.8514H52.6443C55.9989 10.8514 58.7189 13.5715 58.7189 16.926H58.718Z" fill="currentColor"/>
  </g>
  <defs>
    <clipPath id="clip0_8061_1760">
      <rect width="118.844" height="32" fill="currentColor"/>
    </clipPath>
  </defs>
</svg>